<?xml version="1.0" encoding="UTF-8"?>
<svg xmlns="http://www.w3.org/2000/svg" xmlns:xlink="http://www.w3.org/1999/xlink" viewBox="0 0 80 80" width="80px" height="80px">
<g id="surface193488232">
<path style=" stroke:none;fill-rule:nonzero;fill:rgb(90.196079%,49.411765%,13.333334%);fill-opacity:1;" d="M 40 2 C 19.011719 2 2 19.011719 2 40 C 2 60.988281 19.011719 78 40 78 C 60.988281 78 78 60.988281 78 40 C 78 19.011719 60.988281 2 40 2 Z M 40 2 "/>
<path style=" stroke:none;fill-rule:nonzero;fill:rgb(100%,100%,100%);fill-opacity:1;" d="M 77.785156 44.015625 C 77.789062 43.960938 77.800781 43.90625 77.804688 43.855469 C 77.800781 43.90625 77.789062 43.960938 77.785156 44.015625 Z M 2.195312 43.839844 C 2.203125 43.910156 2.214844 43.984375 2.222656 44.054688 C 2.214844 43.984375 2.199219 43.910156 2.195312 43.839844 Z M 45.144531 50.070312 L 54.976562 50.070312 L 56.523438 40.082031 L 45.140625 40.082031 L 45.140625 34.621094 C 45.140625 30.472656 46.496094 26.792969 50.378906 26.792969 L 56.617188 26.792969 L 56.617188 18.070312 C 55.523438 17.925781 53.207031 17.601562 48.828125 17.601562 C 39.683594 17.601562 34.320312 22.429688 34.320312 33.433594 L 34.320312 40.078125 L 24.917969 40.078125 L 24.917969 50.070312 L 34.320312 50.070312 L 34.320312 76.875 C 36.179688 77.152344 38.0625 77.34375 40 77.34375 C 41.75 77.34375 43.457031 77.183594 45.144531 76.957031 Z M 45.144531 50.070312 "/>
<path style=" stroke:none;fill-rule:nonzero;fill:rgb(32.156864%,17.254902%,4.313726%);fill-opacity:1;" d="M 40 4 C 59.851562 4 76 20.148438 76 40 C 76 59.851562 59.851562 76 40 76 C 20.148438 76 4 59.851562 4 40 C 4 20.148438 20.148438 4 40 4 M 40 2 C 19.015625 2 2 19.015625 2 40 C 2 60.984375 19.015625 78 40 78 C 60.984375 78 78 60.984375 78 40 C 78 19.015625 60.984375 2 40 2 Z M 40 2 "/>
</g>
</svg>
