<?xml version="1.0" encoding="UTF-8"?>
<svg xmlns="http://www.w3.org/2000/svg" xmlns:xlink="http://www.w3.org/1999/xlink" viewBox="0 0 80 80" width="80px" height="80px">
<g id="surface187912896">
<path style=" stroke:none;fill-rule:nonzero;fill:rgb(91.764706%,51.372552%,15.294118%);fill-opacity:1;" d="M 61 77 C 69.835938 77 77 69.835938 77 61 L 77 19 C 77 10.164062 69.835938 3 61 3 L 19 3 C 10.164062 3 3 10.164062 3 19 L 3 61 C 3 69.835938 10.164062 77 19 77 Z M 61 77 "/>
<path style=" stroke:none;fill-rule:nonzero;fill:rgb(91.764706%,51.372552%,15.294118%);fill-opacity:1;" d="M 6.800781 8.660156 C 4.433594 11.453125 3 15.054688 3 19 L 3 61 C 3 69.835938 10.164062 77 19 77 L 61 77 C 69.835938 77 77 69.835938 77 61 L 77 19 C 77 17.992188 76.894531 17.015625 76.71875 16.0625 C 64.269531 8.441406 49.664062 4 34 4 C 24.457031 4 15.3125 5.664062 6.800781 8.660156 Z M 6.800781 8.660156 "/>
<path style=" stroke:none;fill-rule:nonzero;fill:rgb(91.764706%,51.372552%,15.294118%);fill-opacity:1;" d="M 3.011719 18.808594 C 3.007812 18.875 3 18.9375 3 19 L 3 61 C 3 69.835938 10.164062 77 19 77 L 61 77 C 69.835938 77 77 69.835938 77 61 L 77 25.792969 C 64.878906 17.121094 50.042969 12 34 12 C 22.929688 12 12.441406 14.453125 3.011719 18.808594 Z M 3.011719 18.808594 "/>
<path style=" stroke:none;fill-rule:nonzero;fill:rgb(92.54902%,67.450982%,38.039216%);fill-opacity:1;" d="M 3 27.761719 L 3 61 C 3 69.835938 10.164062 77 19 77 L 61 77 C 69.835938 77 77 69.835938 77 61 L 77 35.960938 C 65.449219 26.027344 50.433594 20 34 20 C 22.789062 20 12.246094 22.828125 3 27.761719 Z M 3 27.761719 "/>
<path style=" stroke:none;fill-rule:nonzero;fill:rgb(92.54902%,67.450982%,38.039216%);fill-opacity:1;" d="M 34 28 C 22.589844 28 11.972656 31.328125 3 37.019531 L 3 61 C 3 69.835938 10.164062 77 19 77 L 61 77 C 69.835938 77 77 69.835938 77 61 L 77 47.128906 C 66.386719 35.394531 51.066406 28 34 28 Z M 34 28 "/>
<path style=" stroke:none;fill-rule:nonzero;fill:rgb(92.54902%,67.450982%,38.039216%);fill-opacity:1;" d="M 34 36 C 22.277344 36 11.527344 40.066406 3 46.820312 L 3 61 C 3 69.835938 10.164062 77 19 77 L 61 77 C 69.835938 77 77 69.835938 77 61 L 77 60.523438 C 68.285156 45.851562 52.304688 36 34 36 Z M 34 36 "/>
<path style=" stroke:none;fill-rule:nonzero;fill:rgb(92.54902%,67.450982%,38.039216%);fill-opacity:1;" d="M 34 44 C 21.710938 44 10.679688 49.300781 3 57.71875 L 3 61 C 3 69.835938 10.164062 77 19 77 L 61 77 C 65.929688 77 70.335938 74.765625 73.273438 71.261719 C 67.296875 55.347656 51.996094 44 34 44 Z M 34 44 "/>
<path style=" stroke:none;fill-rule:nonzero;fill:rgb(90.588236%,70.588237%,43.529412%);fill-opacity:1;" d="M 61 77 C 62.914062 77 64.738281 76.644531 66.441406 76.03125 C 62.175781 62.128906 49.296875 52 34 52 C 21.628906 52 10.816406 58.617188 4.867188 68.496094 C 7.554688 73.554688 12.875 77 19 77 Z M 61 77 "/>
<path style=" stroke:none;fill-rule:nonzero;fill:rgb(90.588236%,70.588237%,43.529412%);fill-opacity:1;" d="M 34 60 C 23.726562 60 14.855469 65.96875 10.632812 74.617188 C 13.070312 76.121094 15.929688 77 19 77 L 58.367188 77 C 54.699219 67.085938 45.191406 60 34 60 Z M 34 60 "/>
<path style=" stroke:none;fill-rule:nonzero;fill:rgb(90.588236%,70.588237%,43.529412%);fill-opacity:1;" d="M 34 68 C 27.363281 68 21.613281 71.625 18.492188 76.972656 C 18.664062 76.980469 18.828125 77 19 77 L 49.519531 77 C 46.40625 71.636719 40.648438 68 34 68 Z M 34 68 "/>
<path style=" stroke:none;fill-rule:nonzero;fill:rgb(36.470589%,16.078432%,3.529412%);fill-opacity:1;" d="M 62 4 C 69.71875 4 76 10.28125 76 18 L 76 62 C 76 69.71875 69.71875 76 62 76 L 18 76 C 10.28125 76 4 69.71875 4 62 L 4 18 C 4 10.28125 10.28125 4 18 4 L 62 4 M 62 2 L 18 2 C 9.164062 2 2 9.164062 2 18 L 2 62 C 2 70.835938 9.164062 78 18 78 L 62 78 C 70.835938 78 78 70.835938 78 62 L 78 18 C 78 9.164062 70.835938 2 62 2 Z M 62 2 "/>
<path style=" stroke:none;fill-rule:nonzero;fill:rgb(100%,100%,100%);fill-opacity:1;" d="M 55 22 C 53.34375 22 52 23.34375 52 25 C 52 26.65625 53.34375 28 55 28 C 56.65625 28 58 26.65625 58 25 C 58 23.34375 56.65625 22 55 22 Z M 55 22 "/>
<path style="fill:none;stroke-width:11.3;stroke-linecap:butt;stroke-linejoin:miter;stroke:rgb(100%,100%,100%);stroke-opacity:1;stroke-miterlimit:10;" d="M 113 79.1 C 94.27334 79.1 79.1 94.27334 79.1 113 C 79.1 131.72666 94.27334 146.9 113 146.9 C 131.72666 146.9 146.9 131.72666 146.9 113 C 146.9 94.27334 131.72666 79.1 113 79.1 Z M 113 79.1 " transform="matrix(0.353982,0,0,0.353982,0,0)"/>
<path style="fill:none;stroke-width:11.3;stroke-linecap:butt;stroke-linejoin:miter;stroke:rgb(100%,100%,100%);stroke-opacity:1;stroke-miterlimit:10;" d="M 186.45 81.925 C 186.45 58.519434 167.480566 39.55 144.075 39.55 C 131.781836 39.55 94.218164 39.55 81.925 39.55 C 58.519434 39.55 39.55 58.519434 39.55 81.925 C 39.55 94.218164 39.55 131.781836 39.55 144.075 C 39.55 167.480566 58.519434 186.45 81.925 186.45 C 94.218164 186.45 131.781836 186.45 144.075 186.45 C 167.480566 186.45 186.45 167.480566 186.45 144.075 C 186.45 131.781836 186.45 94.218164 186.45 81.925 Z M 186.45 81.925 " transform="matrix(0.353982,0,0,0.353982,0,0)"/>
</g>
</svg>
